<svg height="512pt" viewBox="0 -106 512.00019 512" width="512pt" xmlns="http://www.w3.org/2000/svg"><path d="m497.328125 7.679688c-10.390625-7.945313-24.28125-9.871094-36.421875-5.089844l-122.480469 39.398437c-.402343.128907-.796875.273438-1.183593.4375-12.292969 5.109375-21 16.492188-22.722657 29.699219-1.71875 13.203125 3.785157 26.433594 14.363281 34.527344l9.601563 7.34375-34.421875 35.886718-98.4375-108.285156c-11.679688-13.792968-28.738281-21.476562-46.894531-21.054687-18.226563.433593-35.003907 9.011719-46.085938 23.601562l-100.503906 133.914063c-9.625 12.675781-13.738281 28.34375-11.582031 44.113281 2.160156 15.773437 10.328125 29.757813 23.007812 39.382813 10.75 8.167968 23.40625 12.109374 35.964844 12.109374 18.011719 0 35.824219-8.113281 47.53125-23.53125.027344-.03125.050781-.066406.078125-.101562l55.886719-74.902344 94.472656 103.71875c11.167969 13.183594 27.464844 20.855469 44.824219 21.0625h.640625c17.066406 0 33.320312-7.324218 44.625-20.101562l86.0625-93.007813 14.664062 11.21875c6.039063 4.617188 13.246094 7.261719 20.839844 7.640625 5.515625.28125 11.136719-.695312 16.242188-2.820312 12.292968-5.113282 21-16.492188 22.71875-29.699219.066406-.511719.105468-1.027344.121093-1.546875l3.554688-130.257812c1.371093-12.910157-4.117188-25.738282-14.464844-33.65625zm-15.78125 30.605468c-.066406.511719-.105469 1.03125-.121094 1.546875l-3.542969 129.9375c-.476562 2.234375-2.03125 4.121094-4.160156 5.007813-.96875.402344-1.988281.582031-3.039062.527344-1.421875-.070313-2.769532-.566407-3.902344-1.429688l-25.648438-19.625c-6.230468-4.765625-15.066406-4.007812-20.390624 1.75l-95.585938 103.300781c-.089844.09375-.175781.191407-.261719.289063-5.542969 6.308594-13.535156 9.925781-21.933593 9.925781h-.34375c-8.527344-.101563-16.558594-3.910156-22.035157-10.445313-.136719-.160156-.273437-.320312-.414062-.476562l-107.074219-117.550781c-2.886719-3.167969-6.96875-4.960938-11.234375-4.960938-.246094 0-.492187.003907-.742187.015625-4.53125.222656-8.726563 2.457032-11.4375 6.09375l-66.859376 89.605469c-9.746093 12.785156-28.070312 15.273437-40.875 5.550781-12.820312-9.734375-15.332031-28.089844-5.542968-40.976562l100.5-133.914063c5.40625-7.113281 13.625-11.320312 22.53125-11.53125 8.960937-.195312 17.378906 3.605469 23.101562 10.4375.132813.160157.269532.3125.40625.464844l109.578125 120.539063c2.832031 3.117187 6.832031 4.917968 11.039063 4.976562 4.207031.078125 8.257812-1.636719 11.171875-4.675781l57.449219-59.898438c2.996093-3.121093 4.515624-7.367187 4.1875-11.679687-.332032-4.3125-2.484376-8.28125-5.917969-10.910156l-23.101563-17.671876c-1.980468-1.511718-3.007812-3.988281-2.6875-6.460937.304688-2.320313 1.757813-4.339844 3.839844-5.371094l122.234375-39.320312c.402344-.128907.796875-.273438 1.1875-.4375 2.300781-.957031 4.957031-.609375 6.9375.902343 1.980469 1.519532 3.011719 3.992188 2.6875 6.464844zm0 0"/></svg>